<?xml version="1.0" encoding="UTF-8" standalone="no"?><!DOCTYPE svg PUBLIC "-//W3C//DTD SVG 1.1//EN" "http://www.w3.org/Graphics/SVG/1.1/DTD/svg11.dtd"><svg width="100%" height="100%" viewBox="0 0 318 356" version="1.1" xmlns="http://www.w3.org/2000/svg" xmlns:xlink="http://www.w3.org/1999/xlink" xml:space="preserve" xmlns:serif="http://www.serif.com/" style="fill-rule:evenodd;clip-rule:evenodd;stroke-linecap:round;stroke-linejoin:round;stroke-miterlimit:1.5;"><rect id="Artboard2" x="0" y="0" width="317.208" height="355.708" style="fill:none;"/><path d="M156.789,155.043c19.126,-9.095 71.211,-3.753 71.211,-3.753c0,0 -7.793,10.993 -8.473,18.522c-0.624,6.903 -4.466,12.304 -9.128,13.29c-19.468,4.117 -29.194,2.239 -36.67,0.437c-4.507,-1.085 -7.631,-4.849 -8.186,-11.243c-0.568,-6.532 -6.107,-11.719 -8.754,-11.768c-3.019,-0.056 -7.539,6.165 -9.799,13.74c-1.63,5.463 -2.565,8.144 -6.049,8.667c-7.976,1.198 -33.575,3.796 -41.808,-1.478c-2.533,-1.623 -5.885,-5.25 -6.043,-9.517c-0.373,-10.07 -7.657,-20.65 -7.657,-20.65c0,0 46.358,-8.334 70.851,3.753l0.505,0Zm-0.003,1.576c18.354,-8.037 68.338,-3.316 68.338,-3.316c0,0 -7.055,5.377 -8.058,15.994c-0.616,6.515 -4.27,11.229 -8.833,12.118c-18.683,3.638 -25.969,1.977 -32.721,0.359c-4.128,-0.99 -7.054,-5.905 -7.796,-10.071c-1.279,-7.189 -8.269,-13.047 -10.999,-13.093c-3.018,-0.051 -9.897,7.071 -10.909,14.165c-0.77,5.403 -2.802,7.634 -6.175,8.181c-7.405,1.202 -30.359,3.689 -38.26,-0.971c-2.401,-1.417 -5.549,-4.186 -5.686,-8.33c-0.299,-9.074 -7.378,-18.352 -7.378,-18.352c0,0 44.488,-7.365 67.992,3.316l0.485,0Z" style="fill:#444;stroke:#000;stroke-width:0.2px;"/><path d="M96.079,245.99c11.326,13.43 37.822,47.468 62.52,47.468c24.698,0 55.978,-43.422 58.269,-48.471c2.291,-5.05 3.27,-23.702 5.612,-33.125c1.097,-4.412 7.231,4.943 14.942,-22.133c3.076,-10.804 8.476,-52.907 -4.387,-34.984c-8.255,11.502 -5.235,-48.88 -6.718,-55.628c-3.659,-16.651 -23.593,-39.345 -72.287,-39.345c-48.694,0 -72.113,32.711 -73.537,38.977c-0.745,3.279 -3.943,32.036 -4.496,57.9c-0.222,10.36 -23.322,-27.187 -5.813,32.403c10.446,35.553 16.342,14.46 19.939,23.225c4.866,11.857 -1.254,25.163 5.956,33.713Z" style="fill:none;"/><clipPath id="_clip1"><path d="M96.079,245.99c11.326,13.43 37.822,47.468 62.52,47.468c24.698,0 55.978,-43.422 58.269,-48.471c2.291,-5.05 3.27,-23.702 5.612,-33.125c1.097,-4.412 7.231,4.943 14.942,-22.133c3.076,-10.804 8.476,-52.907 -4.387,-34.984c-8.255,11.502 -5.235,-48.88 -6.718,-55.628c-3.659,-16.651 -23.593,-39.345 -72.287,-39.345c-48.694,0 -72.113,32.711 -73.537,38.977c-0.745,3.279 -3.943,32.036 -4.496,57.9c-0.222,10.36 -23.322,-27.187 -5.813,32.403c10.446,35.553 16.342,14.46 19.939,23.225c4.866,11.857 -1.254,25.163 5.956,33.713Z"/></clipPath><g clip-path="url(#_clip1)"><path d="M91.963,219.903c0,0 12.249,8.065 16.299,20.532c4.05,12.467 10.335,-10.855 5.967,-21.279c-4.369,-10.425 29.685,-11.893 38.272,-10.714c8.587,1.179 50.544,-2.303 50.22,15.118c-0.323,17.421 -8.701,17.231 -4.236,21.536c4.466,4.305 21.235,-23.301 21.329,-16.29c0.031,2.254 3.235,10.676 -1.465,19.797c-9.92,19.253 -35.007,44.855 -58.71,44.855c-23.834,0 -53.768,-21.976 -65.755,-44.141c-5.581,-10.321 -3.448,-23.476 -1.921,-29.414Zm36.228,3.176c2.808,-1.247 12.463,0.287 27.373,0.245c15.871,-0.044 26.953,-1.89 29.739,-0.564c5.404,2.571 -18.4,13.711 -29.599,13.713c-11.2,0.003 -33.309,-10.821 -27.513,-13.394Z" style="fill:url(#_Linear2);stroke:#000;stroke-width:0.2px;"/></g><path d="M96.079,245.99c11.326,13.43 37.822,47.468 62.52,47.468c24.698,0 55.978,-43.422 58.269,-48.471c2.291,-5.05 3.27,-23.702 5.612,-33.125c1.097,-4.412 7.231,4.943 14.942,-22.133c3.076,-10.804 8.476,-52.907 -4.387,-34.984c-8.255,11.502 -5.235,-48.88 -6.718,-55.628c-3.659,-16.651 -23.593,-39.345 -72.287,-39.345c-48.694,0 -72.113,32.711 -73.537,38.977c-0.745,3.279 -3.943,32.036 -4.496,57.9c-0.222,10.36 -23.322,-27.187 -5.813,32.403c10.446,35.553 16.342,14.46 19.939,23.225c4.866,11.857 -1.254,25.163 5.956,33.713Z" style="fill:none;stroke:#000;stroke-width:0.5px;"/><path d="M228,148.49c-0.921,-0.218 -8.667,-31.318 -6.768,-43.225c1.9,-11.907 -13.019,-23.951 -13.019,-23.951c0,0 -4.57,-12.565 5.737,-6.629c10.307,5.936 12.284,20.333 12.779,30.469c0.932,19.104 2.192,43.553 1.271,43.336Z" style="fill:url(#_Linear3);stroke:#000;stroke-width:0.2px;"/><path d="M76.547,151.29c-0.434,-8.339 3.023,-58.577 6.178,-61.615c4.925,-4.742 8.502,-7.152 5.48,14.948c-2.997,21.914 -0.829,27.892 -2.772,35.67c-1.174,4.699 -8.634,15.835 -8.886,10.997Z" style="fill:#696969;stroke:#000;stroke-width:0.15px;"/><path d="M152.501,67.197c12.205,0 29.919,-9.199 47.599,8.539c17.68,17.738 10.902,-11.071 -7.49,-26.71c-21.043,-17.893 -42.475,-17.976 -54.456,-15.176c-11.982,2.801 -46.427,26.719 -50.162,36.607c-3.736,9.887 -9.729,28.928 -5.079,28.428c4.651,-0.5 20.923,-25.816 32.983,-31.428c11.49,-5.348 24.4,-0.26 36.605,-0.26Z" style="fill:url(#_Linear4);stroke:#000;stroke-width:0.2px;"/><path d="M137.834,226.829c0,0 11.257,2.493 18.955,2.493c7.699,0 19.217,-2.164 19.183,-2.433" style="fill:none;stroke:#000;stroke-width:0.3px;"/><defs><linearGradient id="_Linear2" x1="0" y1="0" x2="1" y2="0" gradientUnits="userSpaceOnUse" gradientTransform="matrix(7.66542,85.2484,-85.2484,7.66542,148.999,208.1)"><stop offset="0" style="stop-color:#252525;stop-opacity:0.73"/><stop offset="0.51" style="stop-color:#151515;stop-opacity:0.73"/><stop offset="1" style="stop-color:#0f0f0f;stop-opacity:0.73"/></linearGradient><linearGradient id="_Linear3" x1="0" y1="0" x2="1" y2="0" gradientUnits="userSpaceOnUse" gradientTransform="matrix(18.6589,74.2408,-74.2408,18.6589,209.341,73.0976)"><stop offset="0" style="stop-color:#242424;stop-opacity:1"/><stop offset="1" style="stop-color:#383838;stop-opacity:1"/></linearGradient><linearGradient id="_Linear4" x1="0" y1="0" x2="1" y2="0" gradientUnits="userSpaceOnUse" gradientTransform="matrix(-69.1788,-50.7458,50.7458,-69.1788,179.767,83.2495)"><stop offset="0" style="stop-color:#272727;stop-opacity:1"/><stop offset="1" style="stop-color:#6e6e6e;stop-opacity:1"/></linearGradient></defs></svg>

